<svg width="159" height="36" viewBox="0 0 159 36" fill="none" xmlns="http://www.w3.org/2000/svg">
<path d="M23.4318 10.5982C23.4806 9.25312 24.6067 8.20173 25.9485 8.24972C27.2895 8.29867 28.3376 9.42821 28.2898 10.7742C28.241 12.1193 27.1149 13.1707 25.7731 13.1227C24.4321 13.0737 23.383 11.9442 23.4318 10.5982ZM14.1437 26.7843C14.1944 25.9362 14.9404 24.994 16.0205 25.0326C17.0208 25.0693 17.8025 25.9117 17.7659 26.9151C17.7527 27.2822 17.6326 27.6192 17.4355 27.8988L17.4346 27.8997C15.9585 30.3978 17.2122 32.9872 17.8916 34.0895C17.9282 34.1949 17.9545 34.3286 17.9216 34.4716C17.7799 35.0872 16.6642 35.3442 15.9126 35.3348C15.2388 35.3263 14.1906 35.0967 14.0959 34.5677C14.0668 34.4039 14.1334 34.2382 14.2404 34.0876C15.1534 32.7425 15.4922 29.609 14.4928 27.9242C14.367 27.7444 14.1118 27.3255 14.1437 26.7843ZM0.00139926 16.4002C0.0445653 15.2208 1.0308 14.2993 2.20659 14.3416C3.38144 14.384 4.30012 15.3742 4.2579 16.5536C4.21564 17.7321 3.22848 18.6536 2.05363 18.6112C0.877843 18.5689 -0.0408268 17.5787 0.00139926 16.4002ZM22.1012 6.21658V6.22032C22.3649 7.76779 21.6367 8.94154 19.9936 9.45831L19.9917 9.45923C19.3508 9.65221 18.8741 10.2367 18.8487 10.9455C18.8178 11.803 19.4606 12.5287 20.3023 12.6078L20.306 12.6088L20.3136 12.6097C21.4612 12.7189 21.7258 13.6846 21.1543 14.8763L21.1403 14.9054C21.0023 15.1954 20.9226 15.5201 20.9188 15.8627C20.9057 17.1221 21.9125 18.1528 23.1681 18.1669C24.4227 18.1801 25.4512 17.1701 25.4652 15.9117C25.4775 14.7266 24.5879 13.7439 23.4365 13.6197H23.4337C23.4018 13.6168 23.3698 13.614 23.338 13.6121C22.5638 13.5265 21.4903 12.9457 21.9792 11.515V11.5131C22.027 11.37 22.0543 11.2194 22.0608 11.0613C22.0664 10.8825 22.0439 10.7093 21.9961 10.5464C21.6902 8.49631 23.1418 7.68403 24.0324 7.4308L24.0352 7.42988L24.0586 7.42329H24.0605L24.0614 7.42232C24.6873 7.24069 25.1547 6.67214 25.18 5.98314C25.21 5.12283 24.54 4.40086 23.6833 4.36979C22.8256 4.33872 22.1058 5.0108 22.0749 5.87112C22.0711 5.98784 22.0796 6.10267 22.1002 6.21373L22.1012 6.21658ZM4.91194 21.4586C4.94291 20.5935 5.6664 19.9177 6.52876 19.9488C7.39115 19.9799 8.06487 20.7065 8.03394 21.5715C8.00297 22.4366 7.27852 23.1115 6.41616 23.0804C5.55381 23.0493 4.88004 22.3236 4.91194 21.4586ZM8.50686 9.44794C9.18062 10.6622 8.55285 12.2643 7.05987 12.974C7.01485 12.9928 6.97074 13.0125 6.92663 13.0342L6.92193 13.0361C5.95261 13.5039 5.26852 14.4819 5.22723 15.6349C5.16717 17.2916 6.45838 18.6828 8.10994 18.743C9.26228 18.7844 10.286 18.1669 10.82 17.2276C11.9254 15.938 13.1115 16.7165 13.5563 17.2502C13.5901 17.2982 13.6248 17.3443 13.6605 17.3904L13.6614 17.3923C13.6633 17.3951 13.6651 17.397 13.667 17.3989C14.2038 18.0766 15.0211 18.5237 15.952 18.5576C16.1453 18.5641 16.3357 18.5529 16.5216 18.5246H16.5235C18.069 18.4606 18.3017 19.961 18.2285 20.6867L18.2257 20.7084C18.2172 20.7695 18.2078 20.8289 18.1966 20.8872V20.89C17.9986 21.9527 17.4074 22.4845 17.0743 22.653C15.22 23.5924 13.9119 22.2822 13.0937 21.6506C12.6723 21.276 12.1243 21.0407 11.5181 21.019C10.1303 20.9691 8.96479 22.0563 8.91413 23.4484C8.86441 24.8406 9.94918 26.0106 11.337 26.0604C12.1421 26.0896 12.8731 25.7357 13.3536 25.1606C13.3574 25.1568 13.3611 25.1531 13.3649 25.1484L13.3705 25.1408C13.3902 25.1164 13.409 25.0919 13.4277 25.0674C14.627 23.6028 17.1297 23.6263 18.3383 25.0457C18.9407 25.9174 19.9307 26.5038 21.0689 26.5443C22.9851 26.6139 24.5945 25.1116 24.6639 23.1895C24.7333 21.2675 23.2357 19.6532 21.3195 19.5835C21.2079 19.5798 21.0971 19.5807 20.9873 19.5873C19.486 19.528 18.6217 17.8648 18.9435 16.5169L18.9445 16.516C19.0449 16.2298 19.1049 15.923 19.1162 15.6039C19.1537 14.5685 18.6751 13.6357 17.9113 13.0521C17.8944 13.0361 17.8738 13.021 17.8503 13.0069L17.8494 13.006C17.7968 12.9683 17.7433 12.9316 17.6889 12.8968C17.0002 12.3875 16.484 11.4096 17.5341 10.361C18.0633 9.93272 18.4115 9.28511 18.4377 8.55093C18.465 7.78757 18.1403 7.09382 17.6082 6.62696C16.8612 5.98876 16.0843 4.85172 17.3173 3.69116C17.8353 3.34287 18.1844 2.76022 18.2088 2.08818C18.2491 0.975567 17.382 0.0408922 16.2729 0.00135733C15.1637 -0.0391181 14.2319 0.830616 14.1925 1.9432C14.1709 2.53807 14.4083 3.08121 14.8043 3.46522L14.8053 3.46619C15.5381 4.20789 15.7455 5.57368 14.5162 6.53942L14.5125 6.54131L14.5097 6.54412L14.5069 6.54601L14.5041 6.5479C13.9635 6.97617 13.607 7.63037 13.5807 8.37492C13.5525 9.15428 13.8922 9.8621 14.4449 10.328C15.3298 11.2806 15.0408 12.3715 14.2188 13.0474C14.1897 13.069 14.1615 13.0916 14.1334 13.1142L14.1287 13.118C14.1165 13.1274 14.1052 13.1359 14.0959 13.1453C13.8678 13.3382 13.6679 13.5632 13.5028 13.8145C13.469 13.8635 13.4343 13.9199 13.3996 13.9849L13.3977 13.9877L13.3677 14.0423C12.7915 15.0692 11.6964 15.3488 10.7121 14.0846C10.6117 13.9331 10.4981 13.791 10.3733 13.6611L10.3724 13.6592C9.25569 12.3696 9.63763 10.8175 10.9833 10.217C11.0283 10.2 11.0724 10.1822 11.1156 10.1624L11.1193 10.1605C11.1418 10.152 11.1606 10.1435 11.1756 10.1332C11.8559 9.79904 12.3345 9.10911 12.3636 8.29771C12.4058 7.12207 11.49 6.13563 10.3189 6.09327C9.14684 6.04998 8.16248 6.96958 8.12027 8.14429C8.10335 8.6281 8.24881 9.07992 8.50686 9.44794ZM24.9567 19.5807C24.9876 18.7204 25.7073 18.0493 26.565 18.0804C27.4227 18.1105 28.0927 18.8334 28.0608 19.6927C28.0299 20.5531 27.3101 21.2251 26.4534 21.1941C25.5957 21.163 24.9257 20.441 24.9567 19.5807ZM3.27447 10.1464C3.31014 9.12699 4.16406 8.32974 5.18031 8.36644C6.19563 8.40314 6.99046 9.25971 6.95387 10.2791C6.91723 11.2985 6.06331 12.0939 5.04707 12.0572C4.03175 12.0214 3.23788 11.1648 3.27447 10.1464ZM27.3495 15.3139C27.3946 14.078 28.4287 13.1123 29.6608 13.1575C30.8919 13.2017 31.8547 14.239 31.8106 15.4749C31.7665 16.7099 30.7315 17.6756 29.5003 17.6314C28.2682 17.5862 27.3054 16.5489 27.3495 15.3139ZM10.4371 3.88597C10.4681 3.02004 11.1935 2.34228 12.0567 2.37432C12.9201 2.40442 13.5948 3.13202 13.5638 3.99892C13.5328 4.8649 12.8075 5.54169 11.9442 5.51062C11.0808 5.47955 10.4061 4.75195 10.4371 3.88597ZM18.632 5.45414C18.6545 4.8282 19.1791 4.33872 19.8031 4.36227C20.4271 4.3839 20.9151 4.91008 20.8925 5.53602C20.87 6.16196 20.3455 6.65144 19.7214 6.62885C19.0974 6.60627 18.6095 6.08101 18.632 5.45414Z" fill="#265B69"/>
<path d="M41.6614 26.2078C41.6614 25.9648 41.6702 25.7566 41.6874 25.583C41.7046 25.3921 41.7394 25.2273 41.7915 25.0884C42.4852 25.0537 42.9535 24.8889 43.1965 24.5938C43.4567 24.2814 43.5868 23.6914 43.5868 22.8237V11.8382C43.5868 10.9705 43.4567 10.3891 43.1965 10.0941C42.9535 9.78168 42.4852 9.60815 41.7915 9.57343C41.7394 9.43458 41.7046 9.26974 41.6874 9.07882C41.6702 8.88791 41.6614 8.67965 41.6614 8.45406C42.6329 8.50612 43.682 8.53215 44.8097 8.53215C45.3649 8.53215 45.8936 8.52346 46.3968 8.50612C46.9172 8.48878 47.4376 8.4714 47.9579 8.45406C47.9579 8.67965 47.9491 8.88791 47.9319 9.07882C47.9147 9.26974 47.8799 9.43458 47.8278 9.57343C47.1341 9.60815 46.657 9.78168 46.3968 10.0941C46.1538 10.3891 46.0325 10.9705 46.0325 11.8382V16.8884L50.9501 11.7341C51.5917 11.0746 51.9128 10.5626 51.9128 10.1982C51.93 9.81641 51.6438 9.60815 51.0542 9.57343C51.0021 9.3999 50.9673 9.21767 50.9501 9.02676C50.9329 8.83584 50.9241 8.64497 50.9241 8.45406C51.2191 8.4714 51.6094 8.48878 52.0949 8.50612C52.5805 8.52346 53.0836 8.53215 53.604 8.53215C54.6968 8.53215 55.5903 8.50612 56.284 8.45406C56.284 8.62759 56.2751 8.8185 56.2579 9.02676C56.2407 9.23501 56.1971 9.41724 56.1278 9.57343C55.7464 9.59077 55.3733 9.66886 55.009 9.80771C54.662 9.92918 54.2805 10.1461 53.8642 10.4585C53.4651 10.7709 52.9884 11.2308 52.4332 11.8382L48.1921 16.3417C48.9034 17.0185 49.6924 17.8863 50.5598 18.9449C51.4444 20.0035 52.3723 21.1663 53.3438 22.4332C53.7773 22.9885 54.1592 23.4484 54.4887 23.8129C54.8181 24.1773 55.1912 24.455 55.6075 24.6459C56.041 24.8368 56.5962 24.9583 57.2727 25.0103C57.2727 25.1492 57.2638 25.3227 57.2466 25.531C57.2294 25.7392 57.1946 25.9388 57.1426 26.1297C56.5009 26.1297 55.8068 26.1384 55.0611 26.1557C54.3325 26.1731 53.6472 26.2165 53.0056 26.2859C52.7106 25.8 52.3031 25.1926 51.7827 24.4637C51.2623 23.7174 50.6727 22.9278 50.0134 22.0948C49.3718 21.2617 48.7037 20.4548 48.01 19.6738C47.3163 18.8928 46.657 18.216 46.0325 17.6433V22.8237C46.0325 23.6914 46.1538 24.2814 46.3968 24.5938C46.657 24.8889 47.1341 25.0537 47.8278 25.0884C47.8799 25.2273 47.9147 25.3921 47.9319 25.583C47.9491 25.7566 47.9579 25.9648 47.9579 26.2078C46.9172 26.1557 45.8676 26.1297 44.8097 26.1297C44.3065 26.1297 43.7689 26.1297 43.1965 26.1297C42.6241 26.147 42.1125 26.1731 41.6614 26.2078ZM64.9402 26.364C63.7606 26.364 62.7286 26.1124 61.844 25.6091C60.9594 25.0884 60.2741 24.3682 59.7885 23.4484C59.303 22.5113 59.06 21.4179 59.06 20.1684C59.06 18.9883 59.3114 17.9297 59.8145 16.9925C60.3177 16.0554 61.0114 15.3178 61.896 14.7798C62.7807 14.2418 63.7954 13.9728 64.9402 13.9728C66.1719 13.9728 67.2211 14.2331 68.0885 14.7538C68.9732 15.2744 69.6496 16.0033 70.118 16.9405C70.5863 17.8603 70.8205 18.9362 70.8205 20.1684C70.8205 21.3485 70.5691 22.4071 70.0659 23.3443C69.5804 24.2814 68.8951 25.019 68.0105 25.557C67.143 26.095 66.1199 26.364 64.9402 26.364ZM65.1484 25.1145C66.1891 25.1145 66.9609 24.6893 67.4641 23.8389C67.9672 22.9712 68.2186 21.8518 68.2186 20.4808C68.2186 19.4048 68.0537 18.4763 67.7242 17.6954C67.412 16.8971 66.9869 16.2897 66.4493 15.8731C65.9117 15.4393 65.3217 15.2223 64.68 15.2223C63.6741 15.2223 62.9196 15.6302 62.4164 16.4458C61.9309 17.2615 61.6879 18.3201 61.6879 19.6217C61.6879 21.3746 62.0001 22.7282 62.6246 23.6827C63.249 24.6372 64.0904 25.1145 65.1484 25.1145ZM73.7728 26.2078C73.7728 26.0343 73.7812 25.8521 73.7988 25.6611C73.816 25.4529 73.8508 25.262 73.9029 25.0884C74.5966 25.0884 75.0649 24.9322 75.3079 24.6199C75.5681 24.2901 75.6982 23.6914 75.6982 22.8237V11.1614C75.6982 10.7449 75.6545 10.4064 75.5681 10.1461C75.4984 9.86847 75.3251 9.66021 75.0477 9.52136C74.7699 9.38251 74.3364 9.31311 73.7468 9.31311C73.7468 8.91394 73.8248 8.59291 73.9809 8.34993C74.2411 8.34993 74.6054 8.30656 75.0737 8.21977C75.5593 8.13298 76.0276 8.0202 76.4787 7.88135C76.9295 7.7425 77.2593 7.60369 77.4675 7.46484C77.6236 7.51691 77.7537 7.62104 77.8577 7.77723C77.979 7.93342 78.0399 8.1764 78.0399 8.50612V22.8237C78.0399 23.6914 78.1523 24.2901 78.3781 24.6199C78.6207 24.9322 79.0198 25.0884 79.575 25.0884C79.627 25.262 79.6614 25.4616 79.6791 25.6872C79.6963 25.9128 79.7051 26.0863 79.7051 26.2078C79.2539 26.1731 78.7768 26.147 78.274 26.1297C77.7709 26.1297 77.2677 26.1297 76.7649 26.1297C76.279 26.1297 75.7674 26.1297 75.2298 26.1297C74.6918 26.147 74.2063 26.1731 73.7728 26.2078ZM90.7584 26.364C90.5675 26.2772 90.4114 26.121 90.2901 25.8954C90.186 25.6698 90.134 25.314 90.134 24.8281C90.134 24.7413 90.134 24.6372 90.134 24.5157C90.1512 24.3943 90.1688 24.2728 90.186 24.1513C90.082 24.3769 89.9519 24.6025 89.7958 24.8281C89.6396 25.0537 89.4575 25.2533 89.2494 25.4268C88.9543 25.6872 88.5817 25.9041 88.1306 26.0776C87.6794 26.2338 87.133 26.3119 86.4914 26.3119C85.3986 26.3119 84.566 26.069 83.9936 25.583C83.4211 25.0797 83.1349 24.4029 83.1349 23.5526C83.1349 22.8757 83.2911 22.303 83.6033 21.8344C83.9327 21.3485 84.349 20.9494 84.8522 20.637C85.3726 20.3073 85.9278 20.0469 86.5174 19.856C87.1246 19.6651 87.7142 19.5176 88.2867 19.4135C88.8591 19.3094 89.3622 19.2226 89.7958 19.1532C89.7958 18.4416 89.7785 17.8863 89.7437 17.4871C89.7265 17.088 89.6745 16.7756 89.5876 16.55C89.5184 16.307 89.4055 16.0987 89.2494 15.9252C88.8331 15.4046 88.2955 15.1443 87.6362 15.1443C87.0638 15.1443 86.6126 15.3265 86.2832 15.6909C85.9538 16.038 85.7196 16.4458 85.5807 16.9144C85.4418 17.383 85.3637 17.7995 85.3465 18.164C85.1556 18.164 84.913 18.1553 84.618 18.1379C84.3406 18.1032 84.1325 18.0511 83.9936 17.9817C84.0284 17.5479 84.0368 17.0619 84.0196 16.5239C84.0024 15.986 83.9503 15.526 83.8635 15.1443C84.5748 14.7798 85.3205 14.4935 86.1011 14.2852C86.8989 14.0769 87.6274 13.9728 88.2867 13.9728C88.9283 13.9728 89.4747 14.0683 89.9258 14.2592C90.3942 14.4327 90.7673 14.667 91.0447 14.962C91.4958 15.3959 91.7904 15.9686 91.9293 16.6801C92.0682 17.3743 92.1374 18.3028 92.1374 19.4655V22.3291C92.1374 23.0753 92.2327 23.5959 92.4236 23.891C92.6146 24.1686 93.0569 24.3248 93.7506 24.3595C93.7506 24.5331 93.7418 24.7327 93.7246 24.9583C93.7074 25.1665 93.6637 25.3661 93.5945 25.557C93.161 25.5743 92.675 25.6611 92.1374 25.8173C91.6171 25.9562 91.1575 26.1384 90.7584 26.364ZM87.2199 24.8802C87.6014 24.8802 87.9916 24.7587 88.3907 24.5157C88.7898 24.2554 89.1193 23.8562 89.3795 23.3183C89.6568 22.7803 89.7958 22.0774 89.7958 21.2097V20.2205C89.3622 20.2725 88.9023 20.3506 88.4168 20.4548C87.9312 20.5415 87.4801 20.6804 87.0638 20.8713C86.6475 21.0622 86.3092 21.3311 86.049 21.6783C85.7889 22.008 85.6588 22.4592 85.6588 23.0319C85.6588 23.674 85.8149 24.1426 86.1271 24.4376C86.4393 24.7327 86.8036 24.8802 87.2199 24.8802ZM102.728 26.364C101.549 26.364 100.534 26.1905 99.6842 25.8434C98.8516 25.4963 98.1751 25.0797 97.6547 24.5938C97.8452 24.3508 97.9841 23.9951 98.071 23.5265C98.1751 23.0579 98.2271 22.3117 98.2271 21.2878V11.1614C98.2271 10.7449 98.1835 10.4064 98.097 10.1461C98.0273 9.86847 97.854 9.66021 97.5766 9.52136C97.2988 9.38251 96.8653 9.31311 96.2757 9.31311C96.2757 8.91394 96.3537 8.59291 96.5099 8.34993C96.77 8.34993 97.1343 8.30656 97.6027 8.21977C98.0882 8.13298 98.5565 8.0202 99.0077 7.88135C99.4584 7.7425 99.7882 7.60369 99.9964 7.46484C100.152 7.51691 100.283 7.62104 100.387 7.77723C100.508 7.93342 100.569 8.1764 100.569 8.50612V15.3004C100.569 15.5434 100.56 15.7517 100.543 15.9252C100.525 16.0987 100.499 16.2636 100.465 16.4198C100.534 16.2983 100.595 16.1942 100.647 16.1074C100.699 16.0206 100.742 15.9512 100.777 15.8992C100.933 15.6389 101.176 15.3612 101.505 15.0662C101.852 14.7538 102.268 14.4935 102.754 14.2852C103.24 14.0769 103.769 13.9728 104.342 13.9728C105.868 13.9728 107.056 14.4327 107.906 15.3525C108.773 16.2723 109.207 17.7387 109.207 19.7519C109.207 20.9667 108.938 22.0774 108.4 23.084C107.862 24.0732 107.108 24.8715 106.137 25.4789C105.165 26.069 104.029 26.364 102.728 26.364ZM100.569 20.5849V24.2554C100.863 24.5157 101.193 24.7327 101.558 24.9062C101.922 25.0797 102.355 25.1665 102.858 25.1665C103.223 25.1665 103.613 25.0971 104.029 24.9583C104.463 24.8021 104.879 24.5418 105.278 24.1773C105.677 23.8129 105.998 23.3009 106.241 22.6414C106.501 21.9819 106.631 21.1316 106.631 20.0903C106.631 18.9796 106.466 18.1032 106.137 17.4611C105.807 16.8016 105.417 16.333 104.966 16.0554C104.515 15.7603 104.099 15.6128 103.717 15.6128C103.214 15.6128 102.72 15.7777 102.234 16.1074C101.748 16.4198 101.349 16.9405 101.037 17.6693C100.725 18.3982 100.569 19.3701 100.569 20.5849ZM116.879 26.364C115.856 26.364 115.093 26.1037 114.59 25.583C114.104 25.0451 113.861 24.186 113.861 23.0059V15.9512C113.601 15.8645 113.332 15.795 113.054 15.743C112.777 15.6736 112.421 15.6302 111.988 15.6128C111.988 15.2137 112.066 14.8319 112.222 14.4674H113.861V11.0312C114.208 10.9444 114.546 10.8056 114.876 10.6147C115.223 10.4238 115.526 10.2155 115.786 9.98994C115.96 10.0593 116.073 10.1635 116.125 10.3023C116.177 10.4412 116.203 10.7882 116.203 11.3436V14.4674H119.585C119.585 14.8319 119.507 15.2137 119.351 15.6128C118.727 15.6302 118.154 15.6736 117.634 15.743C117.113 15.795 116.636 15.8645 116.203 15.9512V22.4592C116.203 23.327 116.333 23.9604 116.593 24.3595C116.87 24.7587 117.243 24.9583 117.712 24.9583C118.076 24.9583 118.388 24.9062 118.649 24.8021C118.926 24.698 119.186 24.5418 119.429 24.3335C119.654 24.5938 119.785 24.8802 119.819 25.1926C119.542 25.5223 119.117 25.8 118.544 26.0256C117.989 26.2512 117.434 26.364 116.879 26.364ZM127.042 22.303C127.042 23.0493 127.12 23.622 127.276 24.0211C127.432 24.4029 127.684 24.6719 128.03 24.8281C128.377 24.967 128.82 25.0537 129.357 25.0884C129.409 25.2273 129.444 25.3921 129.461 25.583C129.479 25.7566 129.487 25.9648 129.487 26.2078C129.089 26.1731 128.594 26.147 128.004 26.1297C127.415 26.1297 126.816 26.1297 126.209 26.1297C125.602 26.1297 124.96 26.1297 124.284 26.1297C123.625 26.147 123.122 26.1731 122.775 26.2078C122.775 25.9648 122.783 25.7566 122.801 25.583C122.818 25.3921 122.853 25.2273 122.905 25.0884C123.599 25.0537 124.067 24.8889 124.31 24.5938C124.57 24.2814 124.7 23.6914 124.7 22.8237V17.6693C124.7 17.0619 124.588 16.6107 124.362 16.3157C124.154 16.0033 123.616 15.8384 122.749 15.8211C122.749 15.4219 122.827 15.1009 122.983 14.8579C123.521 14.8232 124.136 14.719 124.83 14.5455C125.524 14.372 126.071 14.1811 126.469 13.9728C126.625 14.0249 126.755 14.1377 126.86 14.3112C126.981 14.4674 127.042 14.7364 127.042 15.1182C127.042 15.6215 126.998 16.0814 126.912 16.4979C126.842 16.8971 126.773 17.2876 126.703 17.6693C126.808 17.3743 126.894 17.114 126.964 16.8884C127.05 16.6628 127.146 16.4719 127.25 16.3157C127.632 15.7083 128.082 15.205 128.603 14.8058C129.123 14.4067 129.722 14.2071 130.398 14.2071C131.057 14.2071 131.656 14.4154 132.193 14.8319C132.124 15.2657 132.072 15.7777 132.037 16.3678C132.02 16.9405 132.011 17.4524 132.011 17.9036C131.855 17.9557 131.639 18.0078 131.361 18.0598C131.101 18.1119 130.823 18.1379 130.528 18.1379C130.494 17.3049 130.355 16.7582 130.112 16.4979C129.887 16.2376 129.6 16.1074 129.253 16.1074C128.959 16.1074 128.638 16.281 128.291 16.6281C127.944 16.9578 127.649 17.4003 127.406 17.9557C127.163 18.5111 127.042 19.1271 127.042 19.804V22.303ZM140.492 26.364C139.26 26.364 138.237 26.0863 137.422 25.531C136.607 24.9756 135.991 24.2294 135.575 23.2922C135.175 22.3377 134.976 21.2965 134.976 20.1684C134.976 19.0577 135.193 18.0338 135.627 17.0966C136.06 16.1595 136.676 15.4046 137.474 14.8319C138.289 14.2592 139.252 13.9728 140.362 13.9728C141.49 13.9728 142.392 14.2158 143.068 14.7017C143.762 15.1876 144.274 15.8384 144.603 16.6541C144.95 17.4698 145.158 18.3722 145.228 19.3614C145.158 19.7085 145.028 20.0035 144.837 20.2465C144.473 20.2465 143.883 20.2465 143.068 20.2465C142.27 20.2465 141.377 20.2552 140.388 20.2725C139.399 20.2899 138.454 20.3246 137.552 20.3767C137.604 21.1403 137.751 21.8692 137.994 22.5633C138.237 23.2575 138.628 23.8216 139.165 24.2554C139.703 24.6893 140.423 24.9062 141.325 24.9062C141.897 24.9062 142.461 24.7761 143.016 24.5157C143.571 24.2554 144.066 23.8823 144.499 23.3964C144.638 23.4658 144.768 23.5873 144.889 23.7608C145.028 23.917 145.106 24.0645 145.123 24.2033C144.534 24.9843 143.849 25.5397 143.068 25.8694C142.305 26.1991 141.446 26.364 140.492 26.364ZM140.128 15.2223C139.729 15.2223 139.339 15.3352 138.957 15.5608C138.576 15.7864 138.255 16.1768 137.994 16.7322C137.734 17.2876 137.578 18.0685 137.526 19.0751H142.522C142.522 17.9297 142.313 17.0012 141.897 16.2897C141.481 15.5781 140.891 15.2223 140.128 15.2223ZM154.038 26.364C152.807 26.364 151.783 26.0863 150.968 25.531C150.153 24.9756 149.537 24.2294 149.121 23.2922C148.722 22.3377 148.522 21.2965 148.522 20.1684C148.522 19.0577 148.739 18.0338 149.173 17.0966C149.607 16.1595 150.222 15.4046 151.02 14.8319C151.836 14.2592 152.798 13.9728 153.908 13.9728C155.036 13.9728 155.938 14.2158 156.614 14.7017C157.308 15.1876 157.82 15.8384 158.149 16.6541C158.496 17.4698 158.704 18.3722 158.774 19.3614C158.704 19.7085 158.574 20.0035 158.383 20.2465C158.019 20.2465 157.43 20.2465 156.614 20.2465C155.816 20.2465 154.923 20.2552 153.934 20.2725C152.945 20.2899 152 20.3246 151.098 20.3767C151.15 21.1403 151.298 21.8692 151.54 22.5633C151.783 23.2575 152.174 23.8216 152.711 24.2554C153.249 24.6893 153.969 24.9062 154.871 24.9062C155.443 24.9062 156.007 24.7761 156.562 24.5157C157.117 24.2554 157.612 23.8823 158.045 23.3964C158.184 23.4658 158.314 23.5873 158.435 23.7608C158.574 23.917 158.652 24.0645 158.67 24.2033C158.08 24.9843 157.395 25.5397 156.614 25.8694C155.851 26.1991 154.993 26.364 154.038 26.364ZM153.674 15.2223C153.275 15.2223 152.885 15.3352 152.503 15.5608C152.122 15.7864 151.801 16.1768 151.54 16.7322C151.28 17.2876 151.124 18.0685 151.072 19.0751H156.068C156.068 17.9297 155.86 17.0012 155.443 16.2897C155.027 15.5781 154.437 15.2223 153.674 15.2223Z" fill="#265B69"/>
</svg>